<svg xmlns="http://www.w3.org/2000/svg" viewBox="0 0 1041.89 194.14"><defs><style>.cls-1{fill:#661eff;}</style></defs><g id="hiDucation_horizontal_blue"><path id="hiDucation_horizontal_blue-2" data-name="hiDucation_horizontal_blue" class="cls-1" d="M96.92,48A59.77,59.77,0,0,0,37.83,98.77c0,.23-.07.47-.1.7A59.76,59.76,0,1,0,96.92,48Zm0,9.91a49.77,49.77,0,0,1,38.36,18,28.4,28.4,0,0,0-7-.88,28.07,28.07,0,0,0-28,26,9.38,9.38,0,0,0-3.14-.58h0c-.06,0-.11,0-.16,0h0a9.51,9.51,0,0,0-3.45.68,28.09,28.09,0,0,0-35-25.17A49.76,49.76,0,0,1,96.92,57.92ZM47.52,101.1c0-.28.07-.57.12-.86a18.13,18.13,0,1,1-.25,3A18.56,18.56,0,0,1,47.52,101.1Zm49.4,56.52A49.93,49.93,0,0,1,51,127.24,28.07,28.07,0,0,0,88,120c.31.82.65,1.63,1,2.41v0a48.24,48.24,0,0,0,7.78,11.1A48.11,48.11,0,0,0,105,122.35v0c.36-.71.67-1.43,1-2.17a28.06,28.06,0,0,0,36.91,7A49.92,49.92,0,0,1,96.92,157.62Zm49.5-54.47A18.15,18.15,0,1,1,128.27,85,18.17,18.17,0,0,1,146.42,103.15Zm14.69,1.53c0,1,.15,2,.15,3.06,0,2.08-.12,4.14-.31,6.17-.1,1-.28,2-.42,3-.28,1.94-.63,3.84-1.08,5.71.54-.55,1-1.15,1.55-1.74a55.36,55.36,0,0,0,6.17-8.56A74.62,74.62,0,0,0,172.54,101c-3.68,1.21-7.49,2.34-11.4,3.37C161.13,104.48,161.11,104.58,161.11,104.68Zm-38.9-1.53a6.06,6.06,0,1,0,6.06-6.06A6.06,6.06,0,0,0,122.21,103.15Zm-89.3,10.76c-.2-2-.32-4.09-.32-6.17,0-1,.11-2,.16-3.06,0-.1,0-.2,0-.3q-5.88-1.55-11.41-3.37a74.68,74.68,0,0,0,5.38,11.33,54.06,54.06,0,0,0,6.17,8.56c.51.59,1,1.19,1.55,1.74-.45-1.87-.8-3.77-1.08-5.71C33.18,115.93,33,114.93,32.91,113.91Zm32.63-4.7a6.06,6.06,0,1,0-6.06-6.06A6.05,6.05,0,0,0,65.54,109.21Zm116.09-69a12,12,0,0,0-16.08-11.29,96.57,96.57,0,1,0,14.11,17.89A11.92,11.92,0,0,0,181.63,40.18ZM184,97.32A86.92,86.92,0,0,1,35.59,158.78a86.91,86.91,0,0,1,122.86-123,12,12,0,0,0,11.18,16.38,11.38,11.38,0,0,0,1.66-.12A86.32,86.32,0,0,1,184,97.32ZM718.62,73a42.42,42.42,0,0,0-42.47,42.37,42.42,42.42,0,0,0,42.47,42.37A41.47,41.47,0,0,0,749,145v6.65a6.07,6.07,0,0,0,12.14,0V115.33A42.42,42.42,0,0,0,718.62,73Zm21.46,63.78a30.34,30.34,0,0,1-51.8-21.41,30.34,30.34,0,1,1,51.8,21.41Zm100.36-89.5a7.61,7.61,0,1,0,5.35,2.23A7.31,7.31,0,0,0,840.44,47.24Zm0,25.72A6.08,6.08,0,0,0,834.37,79v72.63a6.07,6.07,0,0,0,12.14,0V79A6.09,6.09,0,0,0,840.44,73Zm-31,72.63q-18.19,0-18.2-18.16V85.07h12.21a6.06,6.06,0,1,0,0-12.11H791.28V42.7a6.07,6.07,0,0,0-12.13,0V73h-6.07a6.06,6.06,0,0,0,0,12.11h6.07v42.36q0,30.27,30.33,30.27a5.88,5.88,0,0,0,4.29-1.78,6,6,0,0,0,0-8.55A5.88,5.88,0,0,0,809.48,145.59ZM1030.32,84.5a39.44,39.44,0,0,0-55.17-.57V79A6.07,6.07,0,0,0,963,79v72.63a5.82,5.82,0,0,0,1.78,4.28,6,6,0,0,0,8.57,0,5.82,5.82,0,0,0,1.78-4.28V112.3a27.31,27.31,0,0,1,54.61,0v39.34a6.08,6.08,0,0,0,6.06,6.06,6.08,6.08,0,0,0,6.07-6.06V112.3A37.85,37.85,0,0,0,1030.32,84.5ZM907.8,73a42.42,42.42,0,0,0-42.47,42.37,42.47,42.47,0,0,0,84.93,0A42.4,42.4,0,0,0,907.8,73Zm21.46,63.78a30.34,30.34,0,0,1-51.8-21.41,30.34,30.34,0,1,1,51.8,21.41ZM633.06,85.07a29.07,29.07,0,0,1,19.87,7.49,6,6,0,0,0,3.87,1.36,6.08,6.08,0,0,0,6.06-6,6,6,0,0,0-2.12-4.7,42.48,42.48,0,0,0-70.15,32.16,42.5,42.5,0,0,0,70.15,32.15,6.28,6.28,0,0,0,1.9-4.46,6.09,6.09,0,0,0-6.07-6.05,6,6,0,0,0-3.72,1.21,30.27,30.27,0,0,1-50.12-22.85,30.25,30.25,0,0,1,30.33-30.26ZM370.32,73A6.09,6.09,0,0,0,364.25,79v72.63a6.07,6.07,0,0,0,12.14,0V79A6.08,6.08,0,0,0,370.32,73ZM306,73a37.93,37.93,0,0,0-27.3,11V42.7a6.07,6.07,0,0,0-12.14,0V151.64a6.07,6.07,0,0,0,12.14,0V112.3a27.3,27.3,0,0,1,54.6,0v39.34a6.08,6.08,0,0,0,6.06,6.06,5.88,5.88,0,0,0,4.29-1.78,5.82,5.82,0,0,0,1.78-4.28V112.3A39.43,39.43,0,0,0,306,73Zm64.32-25.72a7.61,7.61,0,1,0,5.35,2.23A7.31,7.31,0,0,0,370.32,47.24Zm55.22-10.59H401.28a6.06,6.06,0,0,0-6.07,6.05V151.64a5.82,5.82,0,0,0,1.78,4.28,5.88,5.88,0,0,0,4.29,1.78h24.26A58.55,58.55,0,0,0,468.43,140a58.27,58.27,0,0,0,17.78-42.79,58.26,58.26,0,0,0-17.78-42.78A58.51,58.51,0,0,0,425.54,36.65Zm34.32,94.76a46.85,46.85,0,0,1-34.32,14.18h-18.2V48.75h18.2a48.5,48.5,0,0,1,48.54,48.42A46.6,46.6,0,0,1,459.86,131.41ZM571.77,73A6.09,6.09,0,0,0,565.7,79v39.35a27.3,27.3,0,0,1-54.6,0V79A6.07,6.07,0,0,0,499,79v39.35a39.44,39.44,0,0,0,66.73,28.37v4.91a6.07,6.07,0,0,0,12.14,0V79A6.09,6.09,0,0,0,571.77,73Z"/></g></svg>